{"asset":{"version":"2.0","generator":"Created using the official Cinema 4D glTF Exporter 1.000x290161"},"scenes":[{"nodes":[0]}],"nodes":[{"name":"1","translation":[-72.56166076660156,-7.331735134124756,21.620668411254884],"rotation":[0.0,0.0,0.0,-1.0],"scale":[1.0,1.0,1.0],"children":[1,2,5]},{"name":"扫描","translation":[222.62843322753907,-2.023765802383423,-330.635009765625],"rotation":[0.0,0.0,0.0,-1.0],"scale":[1.0,1.0,1.0],"mesh":0},{"name":"挤压.1","translation":[-436.53204345703127,-5.838627815246582,287.3936767578125],"rotation":[0.7071067690849304,0.0,0.0,-0.7071067690849304],"scale":[1.0,1.0,1.0],"mesh":1,"children":[3,4]},{"name":"封顶 1","translation":[509.09368896484377,309.01434326171877,13.170363426208496],"rotation":[0.0,0.0,0.0,-1.0],"scale":[1.0,1.0,1.0],"mesh":2},{"name":"封顶 2","translation":[509.09368896484377,309.01434326171877,13.170363426208496],"rotation":[0.0,0.0,0.0,-1.0],"scale":[1.0,1.0,1.0],"mesh":3},{"name":"挤压","translation":[83.18910217285156,9.535884857177735,-45.091339111328128],"rotation":[-0.7058355808258057,0.04238077625632286,0.04238077625632286,0.7058355808258057],"scale":[1.0,1.0,1.0],"mesh":4,"children":[6,7]},{"name":"封顶 1","translation":[-34.56863021850586,-9.73117446899414,1.4975717067718506],"rotation":[0.0,0.0,0.0,-1.0],"scale":[1.0,1.0,1.0],"mesh":5},{"name":"封顶 2","translation":[-34.56863021850586,-9.73117446899414,1.4975717067718506],"rotation":[0.0,0.0,0.0,-1.0],"scale":[1.0,1.0,1.0],"mesh":6}],"meshes":[{"primitives":[{"attributes":{"POSITION":1,"NORMAL":2,"TEXCOORD_0":3},"indices":0,"material":0}]},{"primitives":[{"attributes":{"POSITION":5,"NORMAL":6,"TEXCOORD_0":7},"indices":4,"material":1}]},{"primitives":[{"attributes":{"POSITION":9,"NORMAL":10,"TEXCOORD_0":11},"indices":8,"material":1}]},{"primitives":[{"attributes":{"POSITION":13,"NORMAL":14,"TEXCOORD_0":15},"indices":12,"material":1}]},{"primitives":[{"attributes":{"POSITION":17,"NORMAL":18,"TEXCOORD_0":19},"indices":16,"material":2}]},{"primitives":[{"attributes":{"POSITION":21,"NORMAL":22,"TEXCOORD_0":23},"indices":20,"material":2}]},{"primitives":[{"attributes":{"POSITION":25,"NORMAL":26,"TEXCOORD_0":27},"indices":24,"material":2}]}],"accessors":[{"bufferView":0,"type":"SCALAR","componentType":5123,"count":25080,"byteOffset":0,"min":[0],"max":[9945]},{"bufferView":1,"type":"VEC3","componentType":5126,"count":9946,"byteOffset":0,"min":[-693.0770874023438,7.886157035827637,-14.474828720092774],"max":[392.4148254394531,10.824845314025879,630.7905883789063]},{"bufferView":1,"type":"VEC3","componentType":5126,"count":9946,"byteOffset":12,"min":[-1.0,-1.0,-1.0],"max":[1.0,1.0,1.0]},{"bufferView":1,"type":"VEC2","componentType":5126,"count":9946,"byteOffset":24,"min":[0.0,0.0],"max":[1.0,1.0]},{"bufferView":2,"type":"SCALAR","componentType":5123,"count":6270,"byteOffset":0,"min":[0],"max":[2945]},{"bufferView":3,"type":"VEC3","componentType":5126,"count":2946,"byteOffset":0,"min":[-31.763853073120118,-10.904659271240235,-36.82963562011719],"max":[1050.103759765625,631.0322875976563,13.170363426208496]},{"bufferView":3,"type":"VEC3","componentType":5126,"count":2946,"byteOffset":12,"min":[-1.0,-1.0,0.0],"max":[1.0,1.0,0.0]},{"bufferView":3,"type":"VEC2","componentType":5126,"count":2946,"byteOffset":24,"min":[0.0,0.0],"max":[1.0,1.0]},{"bufferView":4,"type":"SCALAR","componentType":5123,"count":3129,"byteOffset":0,"min":[0],"max":[1044]},{"bufferView":5,"type":"VEC3","componentType":5126,"count":1045,"byteOffset":0,"min":[-540.8575439453125,-319.91900634765627,0.0],"max":[541.010009765625,322.0179443359375,0.0]},{"bufferView":5,"type":"VEC3","componentType":5126,"count":1045,"byteOffset":12,"min":[0.0,0.0,1.0],"max":[0.0,0.0,1.0]},{"bufferView":5,"type":"VEC2","componentType":5126,"count":1045,"byteOffset":24,"min":[0.0,0.0],"max":[1.0,0.5933599472045898]},{"bufferView":6,"type":"SCALAR","componentType":5123,"count":3129,"byteOffset":0,"min":[0],"max":[1044]},{"bufferView":7,"type":"VEC3","componentType":5126,"count":1045,"byteOffset":0,"min":[-540.8575439453125,-319.91900634765627,-50.0],"max":[541.010009765625,322.0179443359375,-50.0]},{"bufferView":7,"type":"VEC3","componentType":5126,"count":1045,"byteOffset":12,"min":[0.0,0.0,-1.0],"max":[0.0,0.0,-1.0]},{"bufferView":7,"type":"VEC2","componentType":5126,"count":1045,"byteOffset":24,"min":[0.0,0.0],"max":[1.0,0.5933599472045898]},{"bufferView":8,"type":"SCALAR","componentType":5123,"count":2088,"byteOffset":0,"min":[0],"max":[889]},{"bufferView":9,"type":"VEC3","componentType":5126,"count":890,"byteOffset":0,"min":[-33.7496452331543,-13.007112503051758,-1.4975717067718506],"max":[54.232688903808597,14.487367630004883,1.4975717067718506]},{"bufferView":9,"type":"VEC3","componentType":5126,"count":890,"byteOffset":12,"min":[-1.0,-1.0,0.0],"max":[1.0,1.0,0.0]},{"bufferView":9,"type":"VEC2","componentType":5126,"count":890,"byteOffset":24,"min":[0.0,0.0],"max":[1.0,1.0]},{"bufferView":10,"type":"SCALAR","componentType":5123,"count":1050,"byteOffset":0,"min":[0],"max":[347]},{"bufferView":11,"type":"VEC3","componentType":5126,"count":348,"byteOffset":0,"min":[0.8189845085144043,-3.275938034057617,0.0],"max":[88.80132293701172,24.218542098999025,0.0]},{"bufferView":11,"type":"VEC3","componentType":5126,"count":348,"byteOffset":12,"min":[0.0,0.0,1.0],"max":[0.0,0.0,1.0]},{"bufferView":11,"type":"VEC2","componentType":5126,"count":348,"byteOffset":24,"min":[0.0,0.0],"max":[1.0,0.3125]},{"bufferView":12,"type":"SCALAR","componentType":5123,"count":1050,"byteOffset":0,"min":[0],"max":[347]},{"bufferView":13,"type":"VEC3","componentType":5126,"count":348,"byteOffset":0,"min":[0.8189845085144043,-3.275938034057617,-2.995143413543701],"max":[88.80132293701172,24.218542098999025,-2.995143413543701]},{"bufferView":13,"type":"VEC3","componentType":5126,"count":348,"byteOffset":12,"min":[0.0,0.0,-1.0],"max":[0.0,0.0,-1.0]},{"bufferView":13,"type":"VEC2","componentType":5126,"count":348,"byteOffset":24,"min":[0.0,0.0],"max":[1.0,0.8198500871658325]}],"bufferViews":[{"buffer":0,"byteOffset":0,"byteLength":50160,"target":34963},{"buffer":0,"byteOffset":50160,"byteLength":318272,"target":34962,"byteStride":32},{"buffer":1,"byteOffset":0,"byteLength":12540,"target":34963},{"buffer":1,"byteOffset":12540,"byteLength":94272,"target":34962,"byteStride":32},{"buffer":2,"byteOffset":0,"byteLength":6258,"target":34963},{"buffer":2,"byteOffset":6260,"byteLength":33440,"target":34962,"byteStride":32},{"buffer":3,"byteOffset":0,"byteLength":6258,"target":34963},{"buffer":3,"byteOffset":6260,"byteLength":33440,"target":34962,"byteStride":32},{"buffer":4,"byteOffset":0,"byteLength":4176,"target":34963},{"buffer":4,"byteOffset":4176,"byteLength":28480,"target":34962,"byteStride":32},{"buffer":5,"byteOffset":0,"byteLength":2100,"target":34963},{"buffer":5,"byteOffset":2100,"byteLength":11136,"target":34962,"byteStride":32},{"buffer":6,"byteOffset":0,"byteLength":2100,"target":34963},{"buffer":6,"byteOffset":2100,"byteLength":11136,"target":34962,"byteStride":32}],"buffers":[{"uri":"data:application/octet-stream;base64,","byteLength":368432},{"uri":"data:application/octet-stream;base64,","byteLength":106812},{"uri":"data:application/octet-stream;base64,","byteLength":39700},{"uri":"data:application/octet-stream;base64,","byteLength":39700},{"uri":"data:application/octet-stream;base64,","byteLength":32656},{"uri":"data:application/octet-stream;base64,","byteLength":13236},{"uri":"data:application/octet-stream;base64,","byteLength":13236}],"materials":[{"pbrMetallicRoughness":{"baseColorFactor":[0.315,0.6562500000000003,0.9,1.0],"metallicFactor":0.0,"roughnessFactor":0.5},"emissiveFactor":[0.0,0.0,0.0],"alphaMode":"OPAQUE","doubleSided":false,"name":"材质"},{"pbrMetallicRoughness":{"baseColorFactor":[0.0,0.4666666666666668,1.0,1.0],"metallicFactor":0.0,"roughnessFactor":0.5},"emissiveFactor":[0.0,0.0,0.0],"alphaMode":"OPAQUE","doubleSided":false,"name":"材质.1"},{"pbrMetallicRoughness":{"baseColorFactor":[0.12,0.12,0.12,1.0],"metallicFactor":0.0,"roughnessFactor":0.5},"emissiveFactor":[0.0,0.0,0.0],"alphaMode":"OPAQUE","doubleSided":false,"name":"材质.4"}]}